<svg width="15" height="14" viewBox="0 0 15 14" fill="none" xmlns="http://www.w3.org/2000/svg">
<path d="M1.42221 0.199878C1.30964 0.220301 1.20499 0.271698 1.12001 0.348299C1.03503 0.4249 0.973081 0.523672 0.941124 0.633527C0.909166 0.743382 0.908462 0.85997 0.939091 0.970203C0.96972 1.08044 1.03047 1.17995 1.11452 1.25757L13.4222 13.5653C13.4764 13.6325 13.5442 13.6876 13.621 13.727C13.6979 13.7663 13.7822 13.789 13.8685 13.7937C13.9547 13.7983 14.041 13.7847 14.1216 13.7538C14.2023 13.7229 14.2755 13.6754 14.3366 13.6143C14.3977 13.5532 14.4452 13.48 14.4761 13.3993C14.507 13.3187 14.5206 13.2324 14.516 13.1462C14.5114 13.0599 14.4886 12.9756 14.4493 12.8987C14.4099 12.8218 14.3548 12.7541 14.2876 12.6999L9.7299 8.14219V1.00757C9.7299 0.228494 9.05006 0.0335704 8.51836 0.565263L5.30683 3.71911L1.9799 0.392186C1.91644 0.324521 1.83851 0.272078 1.75192 0.238776C1.66534 0.205475 1.57235 0.192177 1.4799 0.199878C1.46068 0.198976 1.44143 0.198976 1.42221 0.199878ZM2.34529 4.54603C2.00621 4.54603 1.7299 4.82234 1.7299 5.16142V8.85372C1.7299 9.1928 2.00621 9.46911 2.34529 9.46911H4.46067L8.49913 13.4114C9.11452 14.0268 9.7299 13.7117 9.7299 12.873V11.296L2.9799 4.54603H2.34529Z" fill="white"/>
</svg>
