<?xml version="1.0" encoding="utf-8"?>
<!-- Generator: Adobe Illustrator 28.4.1, SVG Export Plug-In . SVG Version: 6.00 Build 0)  -->
<svg version="1.1" id="Layer_1" xmlns="http://www.w3.org/2000/svg" xmlns:xlink="http://www.w3.org/1999/xlink" x="0px" y="0px"
	 viewBox="0 0 15 14" style="enable-background:new 0 0 15 14;" xml:space="preserve">
<style type="text/css">
	.st0{fill:#606060;}
	.st1{fill:#FFFFFF;}
</style>
<path class="st0" d="M22.5,0.2c-0.1,0-0.2,0.1-0.3,0.1S22.1,0.5,22,0.6c0,0.1,0,0.2,0,0.3c0,0.1,0.1,0.2,0.2,0.3l12.3,12.3
	c0.1,0.1,0.1,0.1,0.2,0.2c0.1,0,0.2,0.1,0.2,0.1c0.1,0,0.2,0,0.3,0c0.1,0,0.2-0.1,0.2-0.1s0.1-0.1,0.1-0.2c0-0.1,0-0.2,0-0.3
	c0-0.1,0-0.2-0.1-0.2c0-0.1-0.1-0.1-0.2-0.2l-4.6-4.6V1c0-0.8-0.7-1-1.2-0.4l-3.2,3.2l-3.3-3.3c-0.1-0.1-0.1-0.1-0.2-0.2
	C22.7,0.2,22.6,0.2,22.5,0.2C22.5,0.2,22.5,0.2,22.5,0.2z M23.4,4.5c-0.3,0-0.6,0.3-0.6,0.6v3.7c0,0.3,0.3,0.6,0.6,0.6h2.1l4,3.9
	c0.6,0.6,1.2,0.3,1.2-0.5v-1.6l-6.8-6.7H23.4z"/>
<path class="st1" d="M4.5,4.5H3H2.3C2,4.5,1.7,4.8,1.7,5.2v3.7c0,0.3,0.3,0.6,0.6,0.6h2.1l4,3.9c0.6,0.6,1.2,0.3,1.2-0.5v-1.6V8.1V1
	c0-0.8-0.7-1-1.2-0.4L5.3,3.7L4.5,4.5z"/>
</svg>
